<mxfile host="Electron" modified="2024-07-18T20:15:08.016Z" agent="Mozilla/5.0 (Windows NT 10.0; Win64; x64) AppleWebKit/537.36 (KHTML, like Gecko) draw.io/22.1.16 Chrome/120.0.6099.109 Electron/28.1.0 Safari/537.36" etag="-AZzaaSHCoi9MQ3rUZVl" version="22.1.16" type="device">
  <diagram name="Page-1" id="bF4dPPyDbQ2TE73vLMhs">
    <mxGraphModel dx="819" dy="546" grid="0" gridSize="10" guides="1" tooltips="1" connect="1" arrows="1" fold="1" page="1" pageScale="1" pageWidth="500" pageHeight="400" math="0" shadow="0">
      <root>
        <mxCell id="0" />
        <mxCell id="1" parent="0" />
        <mxCell id="xYSWZGd0gz0DvYh_ufvP-20" value="" style="endArrow=block;html=1;rounded=0;endFill=1;" edge="1" parent="1" source="xYSWZGd0gz0DvYh_ufvP-34" target="xYSWZGd0gz0DvYh_ufvP-35">
          <mxGeometry width="50" height="50" relative="1" as="geometry">
            <mxPoint x="182.11823652199735" y="49.307241875219006" as="sourcePoint" />
            <mxPoint x="163.80561644598356" y="71.630372002471" as="targetPoint" />
          </mxGeometry>
        </mxCell>
        <mxCell id="xYSWZGd0gz0DvYh_ufvP-34" value="" style="ellipse;whiteSpace=wrap;html=1;aspect=fixed;fillColor=#ffe6cc;strokeColor=#d79b00;" vertex="1" parent="1">
          <mxGeometry x="194" y="8" width="30" height="30" as="geometry" />
        </mxCell>
        <mxCell id="xYSWZGd0gz0DvYh_ufvP-35" value="C" style="ellipse;whiteSpace=wrap;html=1;aspect=fixed;" vertex="1" parent="1">
          <mxGeometry x="154" y="62" width="30" height="30" as="geometry" />
        </mxCell>
        <mxCell id="xYSWZGd0gz0DvYh_ufvP-36" value="E" style="ellipse;whiteSpace=wrap;html=1;aspect=fixed;fillColor=#d5e8d4;strokeColor=#82b366;" vertex="1" parent="1">
          <mxGeometry x="72" y="116" width="30" height="30" as="geometry" />
        </mxCell>
        <mxCell id="xYSWZGd0gz0DvYh_ufvP-37" value="O" style="ellipse;whiteSpace=wrap;html=1;aspect=fixed;" vertex="1" parent="1">
          <mxGeometry x="118" y="133" width="30" height="30" as="geometry" />
        </mxCell>
        <mxCell id="xYSWZGd0gz0DvYh_ufvP-38" value="A" style="ellipse;whiteSpace=wrap;html=1;aspect=fixed;" vertex="1" parent="1">
          <mxGeometry x="222" y="123" width="30" height="30" as="geometry" />
        </mxCell>
        <mxCell id="xYSWZGd0gz0DvYh_ufvP-39" value="E" style="ellipse;whiteSpace=wrap;html=1;aspect=fixed;fillColor=#d5e8d4;strokeColor=#82b366;" vertex="1" parent="1">
          <mxGeometry x="8" y="283" width="30" height="30" as="geometry" />
        </mxCell>
        <mxCell id="xYSWZGd0gz0DvYh_ufvP-40" value="T" style="ellipse;whiteSpace=wrap;html=1;aspect=fixed;" vertex="1" parent="1">
          <mxGeometry x="39" y="166" width="30" height="30" as="geometry" />
        </mxCell>
        <mxCell id="xYSWZGd0gz0DvYh_ufvP-41" value="T" style="ellipse;whiteSpace=wrap;html=1;aspect=fixed;" vertex="1" parent="1">
          <mxGeometry x="19" y="222" width="30" height="30" as="geometry" />
        </mxCell>
        <mxCell id="xYSWZGd0gz0DvYh_ufvP-42" value="" style="endArrow=block;html=1;rounded=0;endFill=1;" edge="1" parent="1" source="xYSWZGd0gz0DvYh_ufvP-35" target="xYSWZGd0gz0DvYh_ufvP-36">
          <mxGeometry width="50" height="50" relative="1" as="geometry">
            <mxPoint x="209" y="51" as="sourcePoint" />
            <mxPoint x="173.80561644598356" y="81.630372002471" as="targetPoint" />
          </mxGeometry>
        </mxCell>
        <mxCell id="xYSWZGd0gz0DvYh_ufvP-43" value="" style="endArrow=block;html=1;rounded=0;endFill=1;" edge="1" parent="1" source="xYSWZGd0gz0DvYh_ufvP-36" target="xYSWZGd0gz0DvYh_ufvP-40">
          <mxGeometry width="50" height="50" relative="1" as="geometry">
            <mxPoint x="219" y="61" as="sourcePoint" />
            <mxPoint x="183.80561644598356" y="91.630372002471" as="targetPoint" />
          </mxGeometry>
        </mxCell>
        <mxCell id="xYSWZGd0gz0DvYh_ufvP-44" value="" style="endArrow=block;html=1;rounded=0;endFill=1;" edge="1" parent="1" source="xYSWZGd0gz0DvYh_ufvP-40" target="xYSWZGd0gz0DvYh_ufvP-41">
          <mxGeometry width="50" height="50" relative="1" as="geometry">
            <mxPoint x="229" y="71" as="sourcePoint" />
            <mxPoint x="193.80561644598356" y="101.630372002471" as="targetPoint" />
          </mxGeometry>
        </mxCell>
        <mxCell id="xYSWZGd0gz0DvYh_ufvP-45" value="" style="endArrow=block;html=1;rounded=0;endFill=1;" edge="1" parent="1" source="xYSWZGd0gz0DvYh_ufvP-41" target="xYSWZGd0gz0DvYh_ufvP-39">
          <mxGeometry width="50" height="50" relative="1" as="geometry">
            <mxPoint x="239" y="81" as="sourcePoint" />
            <mxPoint x="203.80561644598356" y="111.630372002471" as="targetPoint" />
          </mxGeometry>
        </mxCell>
        <mxCell id="xYSWZGd0gz0DvYh_ufvP-46" value="E" style="ellipse;whiteSpace=wrap;html=1;aspect=fixed;fillColor=#d5e8d4;strokeColor=#82b366;" vertex="1" parent="1">
          <mxGeometry x="74" y="306" width="30" height="30" as="geometry" />
        </mxCell>
        <mxCell id="xYSWZGd0gz0DvYh_ufvP-47" value="M" style="ellipse;whiteSpace=wrap;html=1;aspect=fixed;" vertex="1" parent="1">
          <mxGeometry x="94" y="186" width="30" height="30" as="geometry" />
        </mxCell>
        <mxCell id="xYSWZGd0gz0DvYh_ufvP-48" value="M" style="ellipse;whiteSpace=wrap;html=1;aspect=fixed;" vertex="1" parent="1">
          <mxGeometry x="79" y="243" width="30" height="30" as="geometry" />
        </mxCell>
        <mxCell id="xYSWZGd0gz0DvYh_ufvP-49" value="" style="endArrow=block;html=1;rounded=0;endFill=1;" edge="1" parent="1" target="xYSWZGd0gz0DvYh_ufvP-47" source="xYSWZGd0gz0DvYh_ufvP-37">
          <mxGeometry width="50" height="50" relative="1" as="geometry">
            <mxPoint x="190.5" y="143" as="sourcePoint" />
            <mxPoint x="279.30561644598356" y="75.630372002471" as="targetPoint" />
          </mxGeometry>
        </mxCell>
        <mxCell id="xYSWZGd0gz0DvYh_ufvP-50" value="" style="endArrow=block;html=1;rounded=0;endFill=1;" edge="1" parent="1" source="xYSWZGd0gz0DvYh_ufvP-47" target="xYSWZGd0gz0DvYh_ufvP-48">
          <mxGeometry width="50" height="50" relative="1" as="geometry">
            <mxPoint x="324.5" y="55" as="sourcePoint" />
            <mxPoint x="289.30561644598356" y="85.630372002471" as="targetPoint" />
          </mxGeometry>
        </mxCell>
        <mxCell id="xYSWZGd0gz0DvYh_ufvP-51" value="" style="endArrow=block;html=1;rounded=0;endFill=1;" edge="1" parent="1" source="xYSWZGd0gz0DvYh_ufvP-48" target="xYSWZGd0gz0DvYh_ufvP-46">
          <mxGeometry width="50" height="50" relative="1" as="geometry">
            <mxPoint x="334.5" y="65" as="sourcePoint" />
            <mxPoint x="299.30561644598356" y="95.630372002471" as="targetPoint" />
          </mxGeometry>
        </mxCell>
        <mxCell id="xYSWZGd0gz0DvYh_ufvP-52" value="" style="endArrow=block;html=1;rounded=0;endFill=1;" edge="1" parent="1" source="xYSWZGd0gz0DvYh_ufvP-35" target="xYSWZGd0gz0DvYh_ufvP-37">
          <mxGeometry width="50" height="50" relative="1" as="geometry">
            <mxPoint x="211" y="53" as="sourcePoint" />
            <mxPoint x="173" y="97" as="targetPoint" />
          </mxGeometry>
        </mxCell>
        <mxCell id="xYSWZGd0gz0DvYh_ufvP-53" value="E" style="ellipse;whiteSpace=wrap;html=1;aspect=fixed;fillColor=#d5e8d4;strokeColor=#82b366;" vertex="1" parent="1">
          <mxGeometry x="134" y="291" width="30" height="30" as="geometry" />
        </mxCell>
        <mxCell id="xYSWZGd0gz0DvYh_ufvP-54" value="R" style="ellipse;whiteSpace=wrap;html=1;aspect=fixed;fillColor=#d5e8d4;strokeColor=#82b366;" vertex="1" parent="1">
          <mxGeometry x="158" y="173" width="30" height="30" as="geometry" />
        </mxCell>
        <mxCell id="xYSWZGd0gz0DvYh_ufvP-55" value="T" style="ellipse;whiteSpace=wrap;html=1;aspect=fixed;" vertex="1" parent="1">
          <mxGeometry x="138" y="232.5" width="30" height="30" as="geometry" />
        </mxCell>
        <mxCell id="xYSWZGd0gz0DvYh_ufvP-56" value="" style="endArrow=block;html=1;rounded=0;endFill=1;" edge="1" parent="1" target="xYSWZGd0gz0DvYh_ufvP-54" source="xYSWZGd0gz0DvYh_ufvP-38">
          <mxGeometry width="50" height="50" relative="1" as="geometry">
            <mxPoint x="198" y="186" as="sourcePoint" />
            <mxPoint x="329.30561644598356" y="83.630372002471" as="targetPoint" />
          </mxGeometry>
        </mxCell>
        <mxCell id="xYSWZGd0gz0DvYh_ufvP-57" value="" style="endArrow=block;html=1;rounded=0;endFill=1;" edge="1" parent="1" source="xYSWZGd0gz0DvYh_ufvP-54" target="xYSWZGd0gz0DvYh_ufvP-55">
          <mxGeometry width="50" height="50" relative="1" as="geometry">
            <mxPoint x="374.5" y="63" as="sourcePoint" />
            <mxPoint x="339.30561644598356" y="93.630372002471" as="targetPoint" />
          </mxGeometry>
        </mxCell>
        <mxCell id="xYSWZGd0gz0DvYh_ufvP-58" value="" style="endArrow=block;html=1;rounded=0;endFill=1;" edge="1" parent="1" source="xYSWZGd0gz0DvYh_ufvP-55" target="xYSWZGd0gz0DvYh_ufvP-53">
          <mxGeometry width="50" height="50" relative="1" as="geometry">
            <mxPoint x="384.5" y="73" as="sourcePoint" />
            <mxPoint x="349.30561644598356" y="103.630372002471" as="targetPoint" />
          </mxGeometry>
        </mxCell>
        <mxCell id="xYSWZGd0gz0DvYh_ufvP-65" value="" style="endArrow=block;html=1;rounded=0;endFill=1;" edge="1" parent="1" source="xYSWZGd0gz0DvYh_ufvP-35" target="xYSWZGd0gz0DvYh_ufvP-38">
          <mxGeometry width="50" height="50" relative="1" as="geometry">
            <mxPoint x="161" y="132" as="sourcePoint" />
            <mxPoint x="163" y="149" as="targetPoint" />
          </mxGeometry>
        </mxCell>
        <mxCell id="xYSWZGd0gz0DvYh_ufvP-66" value="E" style="ellipse;whiteSpace=wrap;html=1;aspect=fixed;fillColor=#d5e8d4;strokeColor=#82b366;" vertex="1" parent="1">
          <mxGeometry x="192" y="298.5" width="30" height="30" as="geometry" />
        </mxCell>
        <mxCell id="xYSWZGd0gz0DvYh_ufvP-67" value="U" style="ellipse;whiteSpace=wrap;html=1;aspect=fixed;" vertex="1" parent="1">
          <mxGeometry x="208" y="182" width="30" height="30" as="geometry" />
        </mxCell>
        <mxCell id="xYSWZGd0gz0DvYh_ufvP-68" value="S" style="ellipse;whiteSpace=wrap;html=1;aspect=fixed;" vertex="1" parent="1">
          <mxGeometry x="200" y="240" width="30" height="30" as="geometry" />
        </mxCell>
        <mxCell id="xYSWZGd0gz0DvYh_ufvP-69" value="" style="endArrow=block;html=1;rounded=0;endFill=1;" edge="1" parent="1" target="xYSWZGd0gz0DvYh_ufvP-67" source="xYSWZGd0gz0DvYh_ufvP-38">
          <mxGeometry width="50" height="50" relative="1" as="geometry">
            <mxPoint x="259" y="182" as="sourcePoint" />
            <mxPoint x="385.30561644598356" y="87.630372002471" as="targetPoint" />
            <Array as="points" />
          </mxGeometry>
        </mxCell>
        <mxCell id="xYSWZGd0gz0DvYh_ufvP-70" value="" style="endArrow=block;html=1;rounded=0;endFill=1;" edge="1" parent="1" source="xYSWZGd0gz0DvYh_ufvP-67" target="xYSWZGd0gz0DvYh_ufvP-68">
          <mxGeometry width="50" height="50" relative="1" as="geometry">
            <mxPoint x="430.5" y="67" as="sourcePoint" />
            <mxPoint x="395.30561644598356" y="97.630372002471" as="targetPoint" />
          </mxGeometry>
        </mxCell>
        <mxCell id="xYSWZGd0gz0DvYh_ufvP-71" value="" style="endArrow=block;html=1;rounded=0;endFill=1;" edge="1" parent="1" source="xYSWZGd0gz0DvYh_ufvP-68" target="xYSWZGd0gz0DvYh_ufvP-66">
          <mxGeometry width="50" height="50" relative="1" as="geometry">
            <mxPoint x="440.5" y="77" as="sourcePoint" />
            <mxPoint x="405.30561644598356" y="107.630372002471" as="targetPoint" />
          </mxGeometry>
        </mxCell>
        <mxCell id="xYSWZGd0gz0DvYh_ufvP-72" value="E" style="ellipse;whiteSpace=wrap;html=1;aspect=fixed;fillColor=#d5e8d4;strokeColor=#82b366;" vertex="1" parent="1">
          <mxGeometry x="263" y="280" width="30" height="30" as="geometry" />
        </mxCell>
        <mxCell id="xYSWZGd0gz0DvYh_ufvP-73" value="D" style="ellipse;whiteSpace=wrap;html=1;aspect=fixed;" vertex="1" parent="1">
          <mxGeometry x="312" y="149" width="30" height="30" as="geometry" />
        </mxCell>
        <mxCell id="xYSWZGd0gz0DvYh_ufvP-74" value="S" style="ellipse;whiteSpace=wrap;html=1;aspect=fixed;" vertex="1" parent="1">
          <mxGeometry x="267" y="197" width="30" height="30" as="geometry" />
        </mxCell>
        <mxCell id="xYSWZGd0gz0DvYh_ufvP-75" value="" style="endArrow=block;html=1;rounded=0;endFill=1;" edge="1" parent="1" target="xYSWZGd0gz0DvYh_ufvP-73" source="xYSWZGd0gz0DvYh_ufvP-38">
          <mxGeometry width="50" height="50" relative="1" as="geometry">
            <mxPoint x="281" y="165.5" as="sourcePoint" />
            <mxPoint x="447.30561644598356" y="76.130372002471" as="targetPoint" />
            <Array as="points" />
          </mxGeometry>
        </mxCell>
        <mxCell id="xYSWZGd0gz0DvYh_ufvP-76" value="" style="endArrow=block;html=1;rounded=0;endFill=1;" edge="1" parent="1" source="xYSWZGd0gz0DvYh_ufvP-73" target="xYSWZGd0gz0DvYh_ufvP-74">
          <mxGeometry width="50" height="50" relative="1" as="geometry">
            <mxPoint x="492.5" y="55.5" as="sourcePoint" />
            <mxPoint x="457.30561644598356" y="86.130372002471" as="targetPoint" />
          </mxGeometry>
        </mxCell>
        <mxCell id="xYSWZGd0gz0DvYh_ufvP-77" value="" style="endArrow=block;html=1;rounded=0;endFill=1;" edge="1" parent="1" source="xYSWZGd0gz0DvYh_ufvP-74" target="xYSWZGd0gz0DvYh_ufvP-72">
          <mxGeometry width="50" height="50" relative="1" as="geometry">
            <mxPoint x="502.5" y="65.5" as="sourcePoint" />
            <mxPoint x="467.30561644598356" y="96.130372002471" as="targetPoint" />
          </mxGeometry>
        </mxCell>
        <mxCell id="xYSWZGd0gz0DvYh_ufvP-78" value="C" style="ellipse;whiteSpace=wrap;html=1;aspect=fixed;fillColor=#d5e8d4;strokeColor=#82b366;" vertex="1" parent="1">
          <mxGeometry x="312" y="306" width="30" height="30" as="geometry" />
        </mxCell>
        <mxCell id="xYSWZGd0gz0DvYh_ufvP-79" value="U" style="ellipse;whiteSpace=wrap;html=1;aspect=fixed;" vertex="1" parent="1">
          <mxGeometry x="314" y="216" width="30" height="30" as="geometry" />
        </mxCell>
        <mxCell id="xYSWZGd0gz0DvYh_ufvP-80" value="" style="endArrow=block;html=1;rounded=0;endFill=1;" edge="1" parent="1" target="xYSWZGd0gz0DvYh_ufvP-79" source="xYSWZGd0gz0DvYh_ufvP-73">
          <mxGeometry width="50" height="50" relative="1" as="geometry">
            <mxPoint x="350" y="246.5" as="sourcePoint" />
            <mxPoint x="509.30561644598356" y="101.630372002471" as="targetPoint" />
          </mxGeometry>
        </mxCell>
        <mxCell id="xYSWZGd0gz0DvYh_ufvP-81" value="" style="endArrow=block;html=1;rounded=0;endFill=1;" edge="1" parent="1" source="xYSWZGd0gz0DvYh_ufvP-79" target="xYSWZGd0gz0DvYh_ufvP-78">
          <mxGeometry width="50" height="50" relative="1" as="geometry">
            <mxPoint x="554.5" y="81" as="sourcePoint" />
            <mxPoint x="519.3056164459836" y="111.630372002471" as="targetPoint" />
          </mxGeometry>
        </mxCell>
        <mxCell id="xYSWZGd0gz0DvYh_ufvP-85" value="T" style="ellipse;whiteSpace=wrap;html=1;aspect=fixed;fillColor=#d5e8d4;strokeColor=#82b366;" vertex="1" parent="1">
          <mxGeometry x="354" y="274" width="30" height="30" as="geometry" />
        </mxCell>
        <mxCell id="xYSWZGd0gz0DvYh_ufvP-86" value="E" style="ellipse;whiteSpace=wrap;html=1;aspect=fixed;" vertex="1" parent="1">
          <mxGeometry x="365" y="197" width="30" height="30" as="geometry" />
        </mxCell>
        <mxCell id="xYSWZGd0gz0DvYh_ufvP-87" value="" style="endArrow=block;html=1;rounded=0;endFill=1;" edge="1" parent="1" target="xYSWZGd0gz0DvYh_ufvP-86" source="xYSWZGd0gz0DvYh_ufvP-73">
          <mxGeometry width="50" height="50" relative="1" as="geometry">
            <mxPoint x="364" y="223" as="sourcePoint" />
            <mxPoint x="560.3056164459836" y="93.630372002471" as="targetPoint" />
          </mxGeometry>
        </mxCell>
        <mxCell id="xYSWZGd0gz0DvYh_ufvP-88" value="" style="endArrow=block;html=1;rounded=0;endFill=1;" edge="1" parent="1" source="xYSWZGd0gz0DvYh_ufvP-86" target="xYSWZGd0gz0DvYh_ufvP-85">
          <mxGeometry width="50" height="50" relative="1" as="geometry">
            <mxPoint x="605.5" y="73" as="sourcePoint" />
            <mxPoint x="570.3056164459836" y="103.630372002471" as="targetPoint" />
          </mxGeometry>
        </mxCell>
        <mxCell id="xYSWZGd0gz0DvYh_ufvP-89" value="" style="endArrow=block;html=1;rounded=0;endFill=1;" edge="1" parent="1" target="xYSWZGd0gz0DvYh_ufvP-90" source="xYSWZGd0gz0DvYh_ufvP-34">
          <mxGeometry width="50" height="50" relative="1" as="geometry">
            <mxPoint x="396" y="39" as="sourcePoint" />
            <mxPoint x="358.80561644598356" y="67.630372002471" as="targetPoint" />
          </mxGeometry>
        </mxCell>
        <mxCell id="xYSWZGd0gz0DvYh_ufvP-90" value="L" style="ellipse;whiteSpace=wrap;html=1;aspect=fixed;" vertex="1" parent="1">
          <mxGeometry x="250" y="43" width="30" height="30" as="geometry" />
        </mxCell>
        <mxCell id="xYSWZGd0gz0DvYh_ufvP-91" value="E" style="ellipse;whiteSpace=wrap;html=1;aspect=fixed;fillColor=#d5e8d4;strokeColor=#82b366;" vertex="1" parent="1">
          <mxGeometry x="289" y="80" width="30" height="30" as="geometry" />
        </mxCell>
        <mxCell id="xYSWZGd0gz0DvYh_ufvP-92" value="" style="endArrow=block;html=1;rounded=0;endFill=1;" edge="1" parent="1" source="xYSWZGd0gz0DvYh_ufvP-90" target="xYSWZGd0gz0DvYh_ufvP-91">
          <mxGeometry width="50" height="50" relative="1" as="geometry">
            <mxPoint x="404" y="47" as="sourcePoint" />
            <mxPoint x="368.80561644598356" y="77.630372002471" as="targetPoint" />
          </mxGeometry>
        </mxCell>
        <mxCell id="xYSWZGd0gz0DvYh_ufvP-93" value="X" style="ellipse;whiteSpace=wrap;html=1;aspect=fixed;fillColor=#d5e8d4;strokeColor=#82b366;" vertex="1" parent="1">
          <mxGeometry x="423" y="359" width="30" height="30" as="geometry" />
        </mxCell>
        <mxCell id="xYSWZGd0gz0DvYh_ufvP-94" value="A" style="ellipse;whiteSpace=wrap;html=1;aspect=fixed;" vertex="1" parent="1">
          <mxGeometry x="423" y="232.5" width="30" height="30" as="geometry" />
        </mxCell>
        <mxCell id="xYSWZGd0gz0DvYh_ufvP-95" value="U" style="ellipse;whiteSpace=wrap;html=1;aspect=fixed;" vertex="1" parent="1">
          <mxGeometry x="423" y="296" width="30" height="30" as="geometry" />
        </mxCell>
        <mxCell id="xYSWZGd0gz0DvYh_ufvP-96" value="" style="endArrow=block;html=1;rounded=0;endFill=1;" edge="1" parent="1" target="xYSWZGd0gz0DvYh_ufvP-94" source="xYSWZGd0gz0DvYh_ufvP-86">
          <mxGeometry width="50" height="50" relative="1" as="geometry">
            <mxPoint x="422" y="268" as="sourcePoint" />
            <mxPoint x="588.3056164459836" y="178.630372002471" as="targetPoint" />
            <Array as="points" />
          </mxGeometry>
        </mxCell>
        <mxCell id="xYSWZGd0gz0DvYh_ufvP-97" value="" style="endArrow=block;html=1;rounded=0;endFill=1;" edge="1" parent="1" source="xYSWZGd0gz0DvYh_ufvP-94" target="xYSWZGd0gz0DvYh_ufvP-95">
          <mxGeometry width="50" height="50" relative="1" as="geometry">
            <mxPoint x="633.5" y="158" as="sourcePoint" />
            <mxPoint x="598.3056164459836" y="188.630372002471" as="targetPoint" />
          </mxGeometry>
        </mxCell>
        <mxCell id="xYSWZGd0gz0DvYh_ufvP-98" value="" style="endArrow=block;html=1;rounded=0;endFill=1;" edge="1" parent="1" source="xYSWZGd0gz0DvYh_ufvP-95" target="xYSWZGd0gz0DvYh_ufvP-93">
          <mxGeometry width="50" height="50" relative="1" as="geometry">
            <mxPoint x="643.5" y="168" as="sourcePoint" />
            <mxPoint x="608.3056164459836" y="198.630372002471" as="targetPoint" />
          </mxGeometry>
        </mxCell>
        <mxCell id="xYSWZGd0gz0DvYh_ufvP-99" value="A" style="ellipse;whiteSpace=wrap;html=1;aspect=fixed;fillColor=#d5e8d4;strokeColor=#82b366;" vertex="1" parent="1">
          <mxGeometry x="335" y="56" width="30" height="30" as="geometry" />
        </mxCell>
        <mxCell id="xYSWZGd0gz0DvYh_ufvP-100" value="" style="endArrow=block;html=1;rounded=0;endFill=1;" edge="1" parent="1" source="xYSWZGd0gz0DvYh_ufvP-90" target="xYSWZGd0gz0DvYh_ufvP-99">
          <mxGeometry width="50" height="50" relative="1" as="geometry">
            <mxPoint x="229" y="44" as="sourcePoint" />
            <mxPoint x="257" y="78" as="targetPoint" />
          </mxGeometry>
        </mxCell>
        <mxCell id="xYSWZGd0gz0DvYh_ufvP-101" value="S" style="ellipse;whiteSpace=wrap;html=1;aspect=fixed;fillColor=#d5e8d4;strokeColor=#82b366;" vertex="1" parent="1">
          <mxGeometry x="331" y="114" width="30" height="30" as="geometry" />
        </mxCell>
        <mxCell id="xYSWZGd0gz0DvYh_ufvP-103" value="" style="endArrow=block;html=1;rounded=0;endFill=1;" edge="1" parent="1" source="xYSWZGd0gz0DvYh_ufvP-91" target="xYSWZGd0gz0DvYh_ufvP-101">
          <mxGeometry width="50" height="50" relative="1" as="geometry">
            <mxPoint x="290" y="70" as="sourcePoint" />
            <mxPoint x="345" y="79" as="targetPoint" />
          </mxGeometry>
        </mxCell>
      </root>
    </mxGraphModel>
  </diagram>
</mxfile>
